<?xml version="1.0" standalone="no"?>
<!DOCTYPE svg PUBLIC "-//W3C//DTD SVG 20010904//EN"
 "http://www.w3.org/TR/2001/REC-SVG-20010904/DTD/svg10.dtd">
<svg version="1.0" xmlns="http://www.w3.org/2000/svg"
 width="512.000000pt" height="512.000000pt" viewBox="0 0 512.000000 512.000000"
 preserveAspectRatio="xMidYMid meet">
<metadata>
Created by potrace 1.14, written by Peter Selinger 2001-2017
</metadata>
<g transform="translate(0.000000,512.000000) scale(0.100000,-0.100000)"
fill="#000000" stroke="none">
<path d="M2340 5109 c-313 -27 -642 -120 -925 -262 -474 -237 -876 -632 -1120
-1100 -527 -1010 -331 -2229 486 -3022 407 -395 891 -626 1479 -706 122 -17
478 -17 600 0 607 83 1088 318 1506 735 417 418 652 899 735 1506 17 122 17
478 0 600 -80 588 -311 1072 -706 1479 -538 555 -1289 836 -2055 770z m821
-1052 c56 -38 81 -84 76 -142 -3 -35 -162 -462 -531 -1425 -471 -1230 -530
-1378 -560 -1407 -99 -92 -266 -21 -266 114 0 41 1036 2767 1069 2813 51 71
146 92 212 47z m-1362 -717 c55 -27 81 -74 81 -143 0 -49 -4 -61 -31 -91 -18
-21 -196 -137 -440 -287 -225 -139 -409 -256 -409 -260 0 -5 10 -14 23 -20 12
-7 201 -122 419 -256 440 -270 438 -269 438 -366 0 -49 -4 -61 -32 -93 -56
-64 -127 -80 -196 -45 -20 11 -224 134 -452 275 -446 274 -466 290 -503 394
-39 107 -12 251 61 331 24 26 185 131 462 302 234 144 434 265 445 269 35 15
95 11 134 -10z m2099 -259 c299 -185 452 -285 472 -310 67 -80 91 -232 52
-328 -42 -102 -59 -116 -403 -328 -561 -345 -578 -355 -615 -355 -129 0 -209
139 -143 247 15 24 118 93 417 276 218 134 407 249 420 256 13 7 22 16 20 21
-2 5 -183 120 -403 255 -407 250 -474 300 -477 352 -3 58 4 89 27 124 32 49
78 71 140 66 46 -3 89 -27 493 -276z"/>
</g>
</svg>
